<?xml version="1.0" encoding="UTF-8" standalone="no"?>
<!-- Created with Inkscape (http://www.inkscape.org/) -->

<svg
   width="210mm"
   height="297mm"
   viewBox="0 0 210 297"
   version="1.1"
   id="svg5"
   inkscape:version="1.1.1 (3bf5ae0d25, 2021-09-20)"
   sodipodi:docname="VaultShare.svg"
   xmlns:inkscape="http://www.inkscape.org/namespaces/inkscape"
   xmlns:sodipodi="http://sodipodi.sourceforge.net/DTD/sodipodi-0.dtd"
   xmlns="http://www.w3.org/2000/svg"
   xmlns:svg="http://www.w3.org/2000/svg">
  <sodipodi:namedview
     id="namedview7"
     pagecolor="#ffffff"
     bordercolor="#666666"
     borderopacity="1.0"
     inkscape:pageshadow="2"
     inkscape:pageopacity="0.0"
     inkscape:pagecheckerboard="0"
     inkscape:document-units="mm"
     showgrid="true"
     inkscape:zoom="1.4823793"
     inkscape:cx="260.72948"
     inkscape:cy="287.71313"
     inkscape:window-width="1920"
     inkscape:window-height="1017"
     inkscape:window-x="-8"
     inkscape:window-y="-8"
     inkscape:window-maximized="1"
     inkscape:current-layer="layer1">
    <inkscape:grid
       type="xygrid"
       id="grid117" />
  </sodipodi:namedview>
  <defs
     id="defs2" />
  <g
     inkscape:label="Layer 1"
     inkscape:groupmode="layer"
     id="layer1">
    <path
       sodipodi:type="star"
       style="fill:#7e7e7e;fill-opacity:1"
       id="path3635-5"
       inkscape:flatsided="false"
       sodipodi:sides="5"
       sodipodi:cx="110"
       sodipodi:cy="240"
       sodipodi:r1="72.111023"
       sodipodi:r2="72.111031"
       sodipodi:arg1="0.5880026"
       sodipodi:arg2="0.58800263"
       inkscape:rounded="0"
       inkscape:randomized="0"
       transform="matrix(-0.11295498,-0.04184562,0.04184562,-0.11295498,96.12099,78.42865)"
       d="m 170,280 0,0 -79.50124,29.42407 -4e-6,1e-5 -52.551183,-66.51764 -8e-6,-1e-5 47.022826,-70.53422 -1e-6,-1e-5 81.61289,22.92509 1e-5,0 z" />
    <path
       sodipodi:type="star"
       style="fill:#7e7e7e;fill-opacity:1"
       id="path3635-5-9"
       inkscape:flatsided="false"
       sodipodi:sides="5"
       sodipodi:cx="110"
       sodipodi:cy="240"
       sodipodi:r1="72.111023"
       sodipodi:r2="72.111031"
       sodipodi:arg1="0.5880026"
       sodipodi:arg2="0.58800263"
       inkscape:rounded="0"
       inkscape:randomized="0"
       transform="matrix(0.10610731,0.05701861,-0.05701861,0.10610731,119.13696,24.018766)"
       d="m 170,280 0,0 -79.50124,29.42407 -4e-6,1e-5 -52.551183,-66.51764 -8e-6,-1e-5 47.022826,-70.53422 -1e-6,-1e-5 81.61289,22.92509 1e-5,0 z" />
    <path
       sodipodi:type="star"
       style="fill:#7e7e7e;fill-opacity:1"
       id="path3635-5-9-3"
       inkscape:flatsided="false"
       sodipodi:sides="5"
       sodipodi:cx="110"
       sodipodi:cy="240"
       sodipodi:r1="72.111023"
       sodipodi:r2="72.111031"
       sodipodi:arg1="0.5880026"
       sodipodi:arg2="0.58800263"
       inkscape:rounded="0"
       inkscape:randomized="0"
       transform="matrix(-0.10610731,0.05701861,0.05701861,0.10610731,68.717207,24.018766)"
       d="m 170,280 0,0 -79.50124,29.42407 -4e-6,1e-5 -52.551183,-66.51764 -8e-6,-1e-5 47.022826,-70.53422 -1e-6,-1e-5 81.61289,22.92509 1e-5,0 z" />
    <path
       sodipodi:type="star"
       style="fill:#7e7e7e;fill-opacity:1"
       id="path3635-5-9-3-2"
       inkscape:flatsided="false"
       sodipodi:sides="5"
       sodipodi:cx="110"
       sodipodi:cy="240"
       sodipodi:r1="72.111023"
       sodipodi:r2="72.111031"
       sodipodi:arg1="0.5880026"
       sodipodi:arg2="0.58800263"
       inkscape:rounded="0"
       inkscape:randomized="0"
       transform="matrix(-0.10610731,-0.05701861,0.05701861,-0.10610731,67.979223,132.93693)"
       d="m 170,280 0,0 -79.50124,29.42407 -4e-6,1e-5 -52.551183,-66.51764 -8e-6,-1e-5 47.022826,-70.53422 -1e-6,-1e-5 81.61289,22.92509 1e-5,0 z" />
    <path
       sodipodi:type="star"
       style="fill:#7e7e7e;fill-opacity:1"
       id="path3635-5-9-3-2-1"
       inkscape:flatsided="false"
       sodipodi:sides="5"
       sodipodi:cx="110"
       sodipodi:cy="240"
       sodipodi:r1="72.111023"
       sodipodi:r2="72.111031"
       sodipodi:arg1="0.5880026"
       sodipodi:arg2="0.58800263"
       inkscape:rounded="0"
       inkscape:randomized="0"
       transform="matrix(0.10610731,-0.05701861,-0.05701861,-0.10610731,119.87494,132.93693)"
       d="m 170,280 0,0 -79.50124,29.42407 -4e-6,1e-5 -52.551183,-66.51764 -8e-6,-1e-5 47.022826,-70.53422 -1e-6,-1e-5 81.61289,22.92509 1e-5,0 z" />
    <path
       sodipodi:type="star"
       style="fill:#7e7e7e;fill-opacity:1"
       id="path3635-5-9-3-2-1-3"
       inkscape:flatsided="false"
       sodipodi:sides="5"
       sodipodi:cx="110"
       sodipodi:cy="240"
       sodipodi:r1="72.111023"
       sodipodi:r2="72.111031"
       sodipodi:arg1="0.5880026"
       sodipodi:arg2="0.58800263"
       inkscape:rounded="0"
       inkscape:randomized="0"
       transform="matrix(0.12036295,-0.0047584,-0.0047584,-0.12036295,114.48523,108.59389)"
       d="m 170,280 0,0 -79.50124,29.42407 -4e-6,1e-5 -52.551183,-66.51764 -8e-6,-1e-5 47.022826,-70.53422 -1e-6,-1e-5 81.61289,22.92509 1e-5,0 z" />
    <path
       sodipodi:type="star"
       style="fill:#7e7e7e;fill-opacity:1"
       id="path3635-5-9-3-2-1-3-8"
       inkscape:flatsided="false"
       sodipodi:sides="5"
       sodipodi:cx="110"
       sodipodi:cy="240"
       sodipodi:r1="72.111023"
       sodipodi:r2="72.111031"
       sodipodi:arg1="0.5880026"
       sodipodi:arg2="0.58800263"
       inkscape:rounded="0"
       inkscape:randomized="0"
       transform="matrix(-0.12036295,-0.0047584,0.0047584,-0.12036295,72.907071,108.46405)"
       d="m 170,280 0,0 -79.50124,29.42407 -4e-6,1e-5 -52.551183,-66.51764 -8e-6,-1e-5 47.022826,-70.53422 -1e-6,-1e-5 81.61289,22.92509 1e-5,0 z" />
    <path
       sodipodi:type="star"
       style="fill:#7e7e7e;fill-opacity:1"
       id="path3635-5-4"
       inkscape:flatsided="false"
       sodipodi:sides="5"
       sodipodi:cx="110"
       sodipodi:cy="240"
       sodipodi:r1="72.111023"
       sodipodi:r2="72.111031"
       sodipodi:arg1="0.5880026"
       sodipodi:arg2="0.58800263"
       inkscape:rounded="0"
       inkscape:randomized="0"
       transform="matrix(-0.11295498,0.04184562,0.04184562,0.11295498,95.98638,79.453735)"
       d="m 170,280 0,0 -79.50124,29.42407 -4e-6,1e-5 -52.551183,-66.51764 -8e-6,-1e-5 47.022826,-70.53422 -1e-6,-1e-5 81.61289,22.92509 1e-5,0 z" />
    <path
       sodipodi:type="star"
       style="fill:#909090;fill-opacity:1"
       id="path4971-3"
       inkscape:flatsided="false"
       sodipodi:sides="8"
       sodipodi:cx="330"
       sodipodi:cy="300"
       sodipodi:r1="125.29964"
       sodipodi:r2="125.29965"
       sodipodi:arg1="0.49934672"
       sodipodi:arg2="0.49934673"
       inkscape:rounded="0"
       inkscape:randomized="0"
       transform="matrix(0.2613349,-0.02739525,0.02800403,0.25565374,-0.71723338,11.057853)"
       d="m 440,360 10e-6,10e-6 -74.64467,60.20814 0,1e-5 L 270,410 l -10e-6,10e-6 -60.20814,-74.64467 -1e-5,0 L 220,240 l -1e-5,-1e-5 74.64467,-60.20814 0,-1e-5 L 390,190 l 10e-6,-1e-5 60.20814,74.64467 1e-5,0 z" />
    <path
       sodipodi:type="star"
       style="fill:#616161;fill-opacity:1"
       id="path4971-3-7"
       inkscape:flatsided="false"
       sodipodi:sides="8"
       sodipodi:cx="330"
       sodipodi:cy="300"
       sodipodi:r1="125.29964"
       sodipodi:r2="125.29965"
       sodipodi:arg1="0.49934672"
       sodipodi:arg2="0.49934673"
       inkscape:rounded="0"
       inkscape:randomized="0"
       transform="matrix(0.24998355,-0.02617768,0.02678765,0.24429135,3.3974999,14.064772)"
       d="m 440,360 10e-6,10e-6 -74.64467,60.20814 0,1e-5 L 270,410 l -10e-6,10e-6 -60.20814,-74.64467 -1e-5,0 L 220,240 l -1e-5,-1e-5 74.64467,-60.20814 0,-1e-5 L 390,190 l 10e-6,-1e-5 60.20814,74.64467 1e-5,0 z" />
    <rect
       style="fill:#c333ff;fill-opacity:1;stroke-width:1.09986"
       id="rect11888"
       width="92.602394"
       height="10.450526"
       x="27.873234"
       y="132.65787"
       transform="matrix(0.7065883,-0.70762488,0.29259869,0.95623533,0,0)" />
    <rect
       style="fill:#dc66ff;fill-opacity:1;stroke-width:1.05966"
       id="rect11888-9"
       width="89.217522"
       height="10.06853"
       x="29.446629"
       y="134.85056"
       transform="matrix(0.7065883,-0.70762488,0.29259869,0.95623533,0,0)" />
  </g>
</svg>
